<svg width="531" height="146" viewBox="0 0 531 146" fill="none" xmlns="http://www.w3.org/2000/svg">
<path d="M1.90834 55.8174L1.5 56.2507V56.8462V143V144.5H3H488.857H489.921L490.272 143.496L510.569 85.6117L510.654 85.3708V85.1154V3V1.5H509.154H53.7422H53.0947L52.6506 1.97127L1.90834 55.8174Z" fill="black" stroke="#C00000" stroke-width="3"/>
<path d="M7.30657 55.8032L6.88464 56.2393V56.8462V143V144.5H8.38464H507.163H508.218L508.575 143.508L529.411 85.6234L529.5 85.3771V85.1154V3V1.5H528H60.4764H59.8405L59.3983 1.95705L7.30657 55.8032Z" stroke="#F6F6F6" stroke-width="3"/>
<path d="M201.272 71.368H217.976V76.504H201.272V71.368ZM201.752 85.768H220.712V91H195.512V57.4H220.04V62.632H201.752V85.768ZM241.636 65.08C243.684 65.08 245.508 65.48 247.108 66.28C248.74 67.08 250.02 68.312 250.948 69.976C251.876 71.608 252.34 73.72 252.34 76.312V91H246.34V77.08C246.34 74.808 245.796 73.112 244.708 71.992C243.652 70.872 242.164 70.312 240.244 70.312C238.836 70.312 237.588 70.6 236.5 71.176C235.412 71.752 234.564 72.616 233.956 73.768C233.38 74.888 233.092 76.312 233.092 78.04V91H227.092V65.368H232.804V72.28L231.796 70.168C232.692 68.536 233.988 67.288 235.684 66.424C237.412 65.528 239.396 65.08 241.636 65.08ZM269.6 91.336C266.784 91.336 264.608 90.616 263.072 89.176C261.536 87.704 260.768 85.544 260.768 82.696V59.704H266.768V82.552C266.768 83.768 267.072 84.712 267.68 85.384C268.32 86.056 269.2 86.392 270.32 86.392C271.664 86.392 272.784 86.04 273.68 85.336L275.36 89.608C274.656 90.184 273.792 90.616 272.768 90.904C271.744 91.192 270.688 91.336 269.6 91.336ZM256.544 70.36V65.56H273.632V70.36H256.544ZM291.5 91.336C288.652 91.336 286.156 90.776 284.012 89.656C281.9 88.504 280.252 86.936 279.068 84.952C277.916 82.968 277.34 80.712 277.34 78.184C277.34 75.624 277.9 73.368 279.02 71.416C280.172 69.432 281.74 67.88 283.724 66.76C285.74 65.64 288.028 65.08 290.588 65.08C293.084 65.08 295.308 65.624 297.26 66.712C299.212 67.8 300.748 69.336 301.868 71.32C302.988 73.304 303.548 75.64 303.548 78.328C303.548 78.584 303.532 78.872 303.5 79.192C303.5 79.512 303.484 79.816 303.452 80.104H282.092V76.12H300.284L297.932 77.368C297.964 75.896 297.66 74.6 297.02 73.48C296.38 72.36 295.5 71.48 294.38 70.84C293.292 70.2 292.028 69.88 290.588 69.88C289.116 69.88 287.82 70.2 286.7 70.84C285.612 71.48 284.748 72.376 284.108 73.528C283.5 74.648 283.196 75.976 283.196 77.512V78.472C283.196 80.008 283.548 81.368 284.252 82.552C284.956 83.736 285.948 84.648 287.228 85.288C288.508 85.928 289.98 86.248 291.644 86.248C293.084 86.248 294.38 86.024 295.532 85.576C296.684 85.128 297.708 84.424 298.604 83.464L301.82 87.16C300.668 88.504 299.212 89.544 297.452 90.28C295.724 90.984 293.74 91.336 291.5 91.336ZM309.311 91V65.368H315.023V72.424L314.351 70.36C315.119 68.632 316.319 67.32 317.951 66.424C319.615 65.528 321.679 65.08 324.143 65.08V70.792C323.887 70.728 323.647 70.696 323.423 70.696C323.199 70.664 322.975 70.648 322.751 70.648C320.479 70.648 318.671 71.32 317.327 72.664C315.983 73.976 315.311 75.944 315.311 78.568V91H309.311Z" fill="white"/>
</svg>
